<svg xmlns="http://www.w3.org/2000/svg" xmlns:xlink="http://www.w3.org/1999/xlink" width="1080" zoomAndPan="magnify" viewBox="0 0 810 809.999993" height="1080" preserveAspectRatio="xMidYMid meet" version="1.0"><defs><clipPath id="id1"><path d="M 203.480469 170.425781 L 606.175781 170.425781 L 606.175781 639.925781 L 203.480469 639.925781 Z M 203.480469 170.425781 " clip-rule="nonzero"/></clipPath></defs><rect x="-81" width="972" fill="rgb(100%, 100%, 100%)" y="-80.999999" height="971.999992" fill-opacity="1"/><rect x="-81" width="972" fill="rgb(100%, 100%, 100%)" y="-80.999999" height="971.999992" fill-opacity="1"/><rect x="-81" width="972" fill="rgb(100%, 100%, 100%)" y="-80.999999" height="971.999992" fill-opacity="1"/><rect x="-81" width="972" fill="rgb(100%, 100%, 100%)" y="-80.999999" height="971.999992" fill-opacity="1"/><g clip-path="url(#id1)"><path fill="rgb(96.078491%, 56.079102%, 23.529053%)" d="M 533.621094 579.613281 L 440.085938 579.613281 L 440.085938 466.574219 C 440.085938 466.574219 454.074219 429.933594 486.875 418.640625 C 519.675781 429.933594 533.621094 466.574219 533.621094 466.574219 Z M 388.96875 459.527344 C 386.847656 463.320312 382.515625 464.40625 383.058594 467.074219 C 383.058594 467.074219 383.597656 467.613281 384.140625 468.699219 C 385.761719 470.867188 386.304688 471.40625 386.847656 471.949219 C 387.386719 472.449219 387.929688 474.117188 388.46875 475.699219 L 388.46875 496.707031 L 382.515625 502.085938 L 388.46875 507.460938 L 388.46875 514.464844 C 387.929688 514.464844 385.761719 515.007812 384.140625 516.632812 C 383.597656 517.175781 382.515625 518.214844 382.515625 519.839844 C 382.515625 522.007812 384.679688 524.175781 388.46875 525.261719 L 388.46875 532.804688 L 272.832031 532.804688 L 272.832031 525.261719 C 276.621094 524.71875 278.742188 522.007812 278.742188 519.839844 C 278.742188 518.214844 277.703125 517.175781 277.160156 516.632812 C 275.535156 515.007812 273.371094 514.464844 272.832031 514.464844 L 272.832031 507.460938 L 278.742188 502.085938 L 272.832031 496.707031 L 272.832031 475.699219 C 273.371094 474.117188 273.914062 472.449219 274.453125 471.949219 C 274.996094 470.867188 275.535156 470.324219 277.160156 468.699219 C 278.242188 467.613281 278.242188 467.074219 278.242188 467.074219 C 278.742188 464.945312 273.914062 463.863281 272.289062 459.527344 C 270.167969 455.777344 272.289062 450.941406 272.832031 449.859375 C 274.996094 445.023438 278.742188 443.398438 280.367188 442.3125 C 281.988281 441.773438 286.277344 439.648438 290.605469 441.273438 C 292.730469 442.3125 294.351562 443.941406 294.894531 443.398438 C 295.433594 442.855469 293.269531 440.730469 293.8125 437.480469 C 294.351562 434.226562 295.433594 432.644531 296.515625 432.101562 C 297.058594 431.019531 299.179688 428.851562 302.425781 428.308594 C 305.132812 427.765625 307.257812 428.308594 308.339844 428.851562 C 309.960938 429.394531 311.585938 430.476562 313.167969 431.558594 C 316.957031 434.226562 317.496094 436.394531 317.996094 435.351562 C 317.996094 434.226562 315.871094 422.933594 324.988281 419.722656 C 327.152344 419.179688 329.316406 418.097656 330.941406 418.097656 C 333.066406 418.640625 335.230469 419.179688 336.851562 419.722656 C 345.96875 422.933594 343.804688 434.8125 343.804688 435.351562 C 343.804688 436.394531 344.886719 434.226562 348.675781 431.558594 C 350.296875 430.476562 351.339844 429.394531 353.503906 428.851562 C 354.585938 428.308594 356.75 427.765625 359.414062 428.308594 C 362.660156 428.851562 364.785156 431.019531 365.324219 432.101562 C 365.867188 432.644531 367.488281 434.8125 368.03125 437.480469 C 368.570312 440.730469 366.40625 442.855469 366.949219 443.398438 C 367.488281 443.941406 368.570312 442.3125 371.234375 441.273438 C 375.566406 439.648438 379.851562 441.773438 381.476562 442.3125 C 383.058594 442.855469 387.386719 445.023438 388.96875 449.859375 C 388.96875 450.941406 390.59375 455.777344 388.96875 459.527344 Z M 576.121094 435.351562 C 576.121094 434.8125 576.660156 433.1875 578.285156 431.558594 C 578.785156 431.019531 579.324219 430.476562 580.949219 428.851562 C 582.03125 427.765625 582.574219 427.265625 583.65625 426.726562 L 584.738281 426.183594 L 606.214844 426.183594 L 606.214844 423.472656 L 601.929688 423.472656 L 601.929688 419.179688 L 595.476562 419.179688 L 595.476562 415.972656 L 589.566406 415.972656 L 589.566406 400.339844 L 587.941406 400.339844 C 586.320312 400.882812 585.238281 401.964844 584.738281 401.964844 C 583.65625 403.007812 583.113281 404.09375 582.574219 405.71875 C 582.03125 406.800781 582.03125 408.386719 581.492188 410.011719 C 580.949219 411.636719 579.867188 410.011719 579.867188 410.011719 L 569.667969 405.175781 L 569.667969 403.550781 C 569.667969 394.921875 569.667969 383.085938 568.585938 369.078125 C 566.960938 354.03125 564.839844 343.277344 562.675781 331.941406 C 559.429688 315.8125 557.847656 307.726562 553.515625 296.972656 C 549.230469 284.589844 544.941406 275.964844 535.785156 258.75 C 528.25 244.742188 522.339844 234.492188 519.132812 228.570312 C 516.429688 223.738281 513.722656 219.945312 512.140625 217.277344 L 490.621094 217.277344 L 490.621094 214.023438 L 491.160156 214.023438 C 494.367188 214.023438 497.074219 214.023438 499.238281 213.484375 C 504.605469 212.941406 506.769531 212.398438 507.8125 211.355469 C 509.433594 210.273438 511.601562 209.191406 512.140625 207.5625 C 512.140625 205.980469 511.058594 204.355469 510.519531 203.8125 C 509.976562 203.269531 508.894531 202.1875 505.148438 201.105469 C 502.441406 200.5625 500.820312 200.5625 497.074219 200.0625 C 494.90625 200.0625 493.324219 199.476562 491.160156 198.976562 L 490.621094 198.976562 L 490.621094 193.015625 C 492.785156 191.433594 493.867188 190.351562 494.90625 189.808594 C 497.074219 188.183594 497.613281 187.640625 498.15625 186.597656 C 498.15625 184.972656 496.53125 183.347656 495.988281 182.804688 C 494.367188 181.179688 492.242188 180.679688 490.621094 180.097656 L 490.078125 179.597656 L 487.414062 170.425781 L 484.710938 179.597656 L 484.167969 180.097656 C 482.542969 180.679688 480.421875 181.179688 478.796875 182.804688 C 477.714844 183.890625 476.09375 184.972656 476.632812 186.597656 C 476.632812 187.640625 477.714844 188.183594 479.878906 189.808594 C 480.964844 190.351562 482.003906 191.433594 484.167969 193.015625 L 484.167969 199.476562 L 483.628906 199.476562 C 481.460938 200.0625 479.339844 200.0625 477.714844 200.5625 C 473.96875 201.105469 472.347656 201.105469 469.640625 201.644531 C 465.894531 202.730469 464.8125 203.8125 464.269531 204.355469 C 463.730469 204.898438 462.648438 206.523438 462.648438 208.105469 C 463.1875 210.273438 465.351562 211.355469 466.976562 211.898438 C 468.015625 212.398438 470.183594 213.484375 475.550781 214.023438 C 477.714844 214.023438 480.421875 214.566406 483.628906 214.566406 L 484.167969 214.566406 L 484.167969 218.859375 L 462.648438 218.859375 C 461.066406 221.570312 458.359375 225.363281 455.652344 230.195312 C 451.90625 236.117188 446.539062 245.828125 439.003906 260.332031 L 438.460938 260.875 C 434.714844 268.417969 430.386719 278.132812 426.097656 289.425781 C 425.015625 292.09375 421.8125 302.347656 418.023438 315.8125 C 416.402344 321.1875 413.195312 336.234375 410.488281 356.160156 C 409.40625 363.203125 408.90625 370.707031 407.824219 384.710938 C 407.285156 394.421875 406.742188 402.464844 406.203125 407.886719 C 406.203125 407.886719 401.914062 407.886719 400.832031 405.175781 L 400.832031 397.089844 L 394.921875 401.425781 L 392.757812 401.425781 L 392.214844 399.800781 C 392.214844 397.632812 391.675781 394.421875 390.59375 390.628906 C 390.050781 389.003906 388.96875 385.253906 385.761719 380.417969 C 384.140625 377.707031 382.515625 375.539062 379.3125 372.332031 C 375.023438 367.496094 371.234375 363.703125 365.867188 359.410156 C 363.160156 357.785156 359.957031 355.117188 355.667969 352.949219 L 355.667969 343.277344 L 352.960938 343.277344 C 351.339844 347.03125 349.214844 347.570312 349.214844 347.570312 L 348.132812 347.570312 L 348.132812 277.546875 C 348.675781 277.046875 349.214844 276.503906 350.296875 275.964844 C 352.960938 274.878906 355.125 275.421875 356.207031 275.421875 C 356.75 275.421875 358.871094 275.964844 363.703125 278.632812 C 368.570312 281.882812 371.234375 282.964844 372.316406 285.632812 C 373.402344 287.800781 372.859375 289.96875 372.859375 291.011719 C 372.316406 294.804688 370.695312 295.886719 369.113281 299.097656 C 367.488281 302.347656 368.03125 305.558594 368.570312 310.390625 C 369.113281 314.183594 369.652344 317.4375 371.777344 321.1875 C 372.859375 323.355469 375.023438 327.105469 379.851562 329.273438 C 383.597656 330.859375 387.386719 330.859375 388.96875 330.316406 C 384.679688 328.191406 383.058594 323.355469 383.058594 323.355469 L 383.058594 319.019531 L 394.921875 319.019531 C 390.59375 318.480469 387.386719 316.851562 385.761719 315.8125 C 382.515625 314.183594 381.476562 312.558594 381.476562 312.019531 C 380.394531 310.390625 380.394531 308.808594 379.851562 307.726562 C 379.851562 306.097656 379.851562 305.558594 379.851562 301.804688 C 380.394531 298.054688 380.394531 296.429688 380.394531 294.804688 C 380.394531 294.261719 380.394531 291.550781 379.851562 288.34375 C 379.3125 285.632812 379.3125 284.050781 378.230469 282.425781 C 377.148438 280.257812 375.566406 278.632812 373.402344 275.964844 C 372.859375 275.421875 371.234375 273.796875 368.570312 271.628906 C 366.949219 270.585938 366.40625 270.042969 365.867188 269.503906 L 365.324219 268.960938 C 363.703125 267.335938 361.578125 264.125 361.578125 264.125 C 360.496094 262.5 359.957031 261.957031 359.414062 260.875 C 358.871094 259.792969 357.789062 258.164062 357.25 255.496094 C 356.75 252.789062 357.25 252.789062 356.75 249.578125 C 356.207031 247.953125 356.207031 246.328125 355.125 244.742188 C 354.042969 242.578125 352.421875 240.949219 352.421875 240.949219 C 351.339844 239.867188 350.796875 239.867188 350.296875 238.785156 C 349.757812 237.742188 350.296875 237.199219 349.757812 236.65625 C 349.757812 236.117188 348.675781 234.492188 347.59375 234.492188 C 346.511719 234.492188 345.425781 236.117188 345.96875 236.65625 C 346.511719 237.199219 347.59375 237.199219 348.132812 237.742188 C 348.675781 238.285156 348.675781 238.785156 348.675781 239.367188 C 348.675781 239.867188 348.675781 240.949219 348.132812 240.949219 C 348.132812 241.492188 348.132812 241.492188 348.132812 242.035156 C 348.132812 243.117188 348.132812 244.203125 348.675781 244.742188 C 349.214844 245.285156 349.757812 246.328125 349.757812 246.328125 C 350.796875 247.410156 350.796875 247.953125 351.339844 248.496094 C 351.339844 249.039062 351.339844 249.578125 351.878906 250.664062 C 351.878906 251.703125 351.878906 251.703125 351.878906 252.246094 C 351.878906 252.789062 352.421875 253.871094 354.042969 254.957031 C 354.585938 256.039062 355.667969 257.125 356.207031 258.164062 C 355.667969 258.164062 354.585938 258.164062 354.042969 258.164062 C 353.503906 258.164062 352.960938 257.664062 350.296875 255.496094 C 347.050781 254.414062 347.59375 254.414062 345.425781 252.246094 C 345.425781 252.246094 344.34375 251.203125 343.804688 250.664062 C 343.304688 249.578125 342.761719 249.039062 342.761719 248.496094 C 342.761719 247.953125 342.761719 247.953125 342.761719 247.410156 C 342.761719 246.328125 342.761719 245.828125 342.761719 244.203125 C 342.761719 242.578125 342.761719 242.035156 342.222656 241.492188 C 342.222656 241.492188 341.679688 240.949219 341.140625 240.410156 C 340.597656 239.867188 339.515625 239.867188 338.433594 240.410156 C 337.894531 240.949219 337.894531 240.949219 337.894531 241.492188 C 337.394531 243.660156 337.894531 245.828125 337.894531 245.828125 C 338.433594 247.410156 338.976562 248.496094 338.976562 249.039062 C 339.515625 250.121094 340.058594 250.664062 341.140625 252.246094 C 342.222656 253.332031 342.761719 254.414062 343.304688 254.957031 C 344.34375 256.039062 344.886719 256.582031 345.96875 257.125 C 347.050781 257.664062 348.132812 258.75 349.214844 259.792969 C 348.675781 259.792969 347.59375 260.332031 346.511719 260.332031 C 345.96875 260.332031 344.34375 260.332031 342.761719 259.792969 C 340.597656 259.25 338.976562 258.164062 337.894531 257.125 C 336.3125 256.039062 335.769531 255.496094 335.230469 254.414062 C 334.6875 253.332031 334.148438 252.246094 334.148438 252.246094 C 333.605469 252.246094 333.605469 254.414062 333.605469 254.957031 C 333.605469 258.164062 334.148438 260.332031 334.6875 261.417969 C 335.769531 265.210938 337.894531 267.878906 338.433594 268.417969 C 340.058594 270.585938 341.679688 272.171875 343.304688 273.253906 L 343.304688 348.65625 L 338.976562 348.65625 L 338.976562 338.402344 L 334.6875 338.402344 L 334.6875 334.109375 L 330.359375 334.109375 L 330.359375 326.023438 L 326.613281 326.023438 L 326.613281 321.730469 L 325.53125 321.730469 C 325.53125 321.730469 326.070312 319.5625 324.988281 316.851562 C 323.40625 319.5625 324.449219 321.730469 324.449219 321.730469 L 323.40625 321.730469 L 323.40625 326.023438 L 319.621094 326.023438 L 319.621094 334.109375 L 315.332031 334.109375 L 315.332031 338.402344 L 311.042969 338.402344 L 311.042969 348.65625 L 301.886719 348.65625 C 301.886719 348.65625 299.722656 348.113281 298.140625 344.320312 L 295.433594 344.320312 L 295.433594 354.03125 C 291.148438 356.160156 287.898438 358.867188 285.195312 360.492188 C 280.90625 363.703125 276.078125 367.496094 271.75 373.414062 C 270.167969 375.539062 267.460938 378.792969 265.878906 383.625 C 264.257812 387.417969 264.257812 390.628906 263.714844 393.339844 C 263.175781 397.089844 263.175781 400.339844 263.175781 402.464844 L 251.894531 394.421875 L 242.734375 403.007812 L 228.75 397.089844 L 228.75 407.34375 L 205.105469 420.265625 L 213.140625 420.265625 L 213.140625 426.726562 C 214.222656 426.726562 215.304688 427.265625 216.925781 428.308594 C 218.007812 428.851562 220.132812 429.933594 222.296875 432.644531 C 223.921875 434.226562 224.460938 436.394531 225.003906 437.480469 C 226.085938 440.730469 225.542969 441.273438 226.585938 443.398438 C 227.667969 445.566406 229.832031 447.148438 231.996094 447.691406 C 234.117188 448.234375 236.285156 447.691406 236.285156 448.234375 C 236.285156 448.773438 234.660156 449.316406 233.578125 451.484375 C 232.535156 453.609375 233.035156 455.777344 233.578125 456.859375 C 234.117188 457.945312 234.660156 459.027344 235.742188 461.152344 C 236.285156 462.238281 236.824219 463.320312 237.367188 463.863281 L 241.652344 463.863281 L 241.652344 480.578125 L 240.03125 480.578125 L 240.03125 484.328125 C 239.53125 484.871094 238.988281 485.953125 238.449219 486.453125 C 236.824219 487.539062 235.742188 488.082031 234.660156 488.082031 C 235.199219 488.082031 236.824219 488.621094 238.449219 489.707031 C 239.53125 490.789062 240.03125 491.332031 240.03125 491.875 C 240.570312 492.914062 241.652344 495.082031 241.652344 495.082031 L 241.652344 519.339844 C 241.652344 524.175781 235.742188 526.300781 235.742188 526.300781 C 235.742188 526.300781 241.652344 528.46875 241.652344 533.347656 L 241.652344 543.015625 L 238.988281 543.015625 L 238.988281 545.140625 L 236.824219 545.140625 L 236.824219 546.769531 L 234.117188 546.769531 L 234.117188 548.933594 L 236.824219 548.933594 L 236.824219 550.5625 L 238.988281 550.5625 L 238.988281 552.6875 L 241.652344 552.6875 L 241.652344 563.480469 L 226.585938 563.480469 L 226.585938 565.109375 L 230.914062 565.109375 L 230.914062 567.234375 L 231.996094 567.234375 L 231.996094 569.402344 L 232.535156 569.402344 L 232.535156 617.335938 L 215.304688 617.335938 L 215.304688 631.296875 L 203.480469 631.296875 L 203.480469 639.925781 L 602.46875 639.925781 L 602.46875 631.296875 L 593.851562 631.296875 L 593.851562 617.335938 L 580.949219 617.335938 L 580.949219 588.242188 L 572.332031 588.242188 L 572.332031 580.15625 L 565.878906 580.15625 L 565.878906 555.9375 L 572.332031 555.9375 L 572.332031 551.644531 L 565.878906 551.644531 L 565.878906 505.335938 L 571.832031 505.335938 L 571.832031 497.792969 L 565.878906 497.792969 C 565.382812 497.25 564.839844 497.25 564.839844 497.25 C 564.839844 496.707031 564.296875 495.082031 564.839844 493.5 C 565.382812 492.375 565.878906 491.332031 566.960938 490.246094 C 567.503906 489.164062 569.128906 488.082031 570.75 486.996094 C 570.75 486.996094 572.332031 485.953125 575.578125 485.953125 L 575.578125 484.328125 L 565.878906 484.328125 C 565.878906 484.328125 564.839844 484.328125 565.878906 482.703125 C 566.421875 481.621094 567.503906 480.578125 568.046875 479.492188 C 568.585938 478.410156 569.128906 477.867188 569.667969 476.785156 L 570.210938 476.242188 C 569.667969 475.699219 569.667969 474.117188 569.128906 472.992188 C 568.585938 471.40625 568.046875 469.242188 568.585938 467.074219 C 568.585938 464.945312 569.667969 463.320312 569.667969 462.238281 C 570.210938 460.652344 571.292969 459.027344 571.832031 457.945312 C 572.332031 456.859375 573.414062 455.277344 575.039062 453.609375 C 577.203125 451.484375 578.785156 450.398438 580.40625 449.859375 L 580.40625 446.648438 L 575.578125 446.648438 C 575.578125 445.566406 575.039062 444.480469 575.039062 443.398438 C 575.039062 442.3125 575.039062 441.773438 575.039062 440.730469 C 575.578125 438.019531 575.578125 436.9375 576.121094 435.351562 " fill-opacity="1" fill-rule="nonzero"/></g></svg>