<svg xmlns="http://www.w3.org/2000/svg" xmlns:xlink="http://www.w3.org/1999/xlink" width="1080" zoomAndPan="magnify" viewBox="0 0 810 809.999993" height="1080" preserveAspectRatio="xMidYMid meet" version="1.0"><defs><g><g id="id1"/></g><clipPath id="id2"><path d="M 394.488281 432 L 516.738281 432 L 516.738281 461.234375 L 394.488281 461.234375 Z M 394.488281 432 " clip-rule="nonzero"/></clipPath><clipPath id="id3"><path d="M 415 325.484375 L 487 325.484375 L 487 349 L 415 349 Z M 415 325.484375 " clip-rule="nonzero"/></clipPath></defs><g clip-path="url(#id2)"><path fill="rgb(96.078491%, 56.079102%, 23.529053%)" d="M 373.855469 479.984375 L 373.855469 460.671875 C 373.855469 453.59375 379.359375 445.964844 386.070312 443.722656 L 418.339844 432.96875 C 426.753906 441.875 438.597656 447.542969 451.105469 447.542969 C 463.617188 447.542969 475.460938 441.871094 483.871094 432.964844 L 516.140625 443.71875 C 522.863281 445.964844 528.355469 453.59375 528.355469 460.671875 L 528.355469 479.984375 Z M 373.855469 479.984375 " fill-opacity="1" fill-rule="nonzero"/></g><path fill="rgb(96.078491%, 56.079102%, 23.529053%)" d="M 489.730469 357.671875 L 412.480469 357.671875 C 405.402344 357.671875 399.605469 363.46875 399.605469 370.546875 L 399.605469 389.859375 C 399.605469 396.9375 405.402344 402.734375 412.480469 402.734375 L 489.730469 402.734375 C 496.808594 402.734375 502.605469 396.9375 502.605469 389.859375 L 502.605469 370.546875 C 502.605469 363.46875 496.808594 357.671875 489.730469 357.671875 Z M 425.355469 383.421875 L 412.480469 383.421875 L 412.480469 370.546875 L 425.355469 370.546875 Z M 425.355469 383.421875 " fill-opacity="1" fill-rule="nonzero"/><path fill="rgb(96.078491%, 56.079102%, 23.529053%)" d="M 420.578125 412.390625 C 424.933594 425 437.703125 434.667969 451.105469 434.667969 C 464.507812 434.667969 477.277344 425 481.636719 412.390625 Z M 420.578125 412.390625 " fill-opacity="1" fill-rule="nonzero"/><g clip-path="url(#id3)"><path fill="rgb(96.078491%, 56.079102%, 23.529053%)" d="M 486.71875 348.015625 C 481.074219 334.585938 467.886719 325.484375 451.105469 325.484375 C 434.320312 325.484375 421.144531 334.585938 415.496094 348.015625 Z M 486.71875 348.015625 " fill-opacity="1" fill-rule="nonzero"/></g><g fill="rgb(0%, 0%, 0%)" fill-opacity="1"><g transform="translate(58.155007, 461.851286)"><g><path d="M 120.171875 -107.84375 L 73.953125 0 L 43.90625 0 L -2.15625 -107.84375 L 30.8125 -107.84375 L 60.078125 -37.59375 L 89.96875 -107.84375 Z M 120.171875 -107.84375 "/></g></g></g><g fill="rgb(0%, 0%, 0%)" fill-opacity="1"><g transform="translate(176.160857, 461.851286)"><g><path d="M 57.921875 -28.65625 L 41.28125 -28.65625 L 41.28125 0 L 10.78125 0 L 10.78125 -107.84375 L 60.078125 -107.84375 C 69.835938 -107.84375 78.3125 -106.222656 85.5 -102.984375 C 92.695312 -99.753906 98.242188 -95.132812 102.140625 -89.125 C 106.046875 -83.113281 108 -76.050781 108 -67.9375 C 108 -60.132812 106.175781 -53.332031 102.53125 -47.53125 C 98.882812 -41.726562 93.671875 -37.179688 86.890625 -33.890625 L 110.15625 0 L 77.5 0 Z M 77.1875 -67.9375 C 77.1875 -72.96875 75.59375 -76.867188 72.40625 -79.640625 C 69.226562 -82.421875 64.503906 -83.8125 58.234375 -83.8125 L 41.28125 -83.8125 L 41.28125 -52.234375 L 58.234375 -52.234375 C 64.503906 -52.234375 69.226562 -53.59375 72.40625 -56.3125 C 75.59375 -59.03125 77.1875 -62.90625 77.1875 -67.9375 Z M 77.1875 -67.9375 "/></g></g></g><g fill="rgb(0%, 0%, 0%)" fill-opacity="1"><g transform="translate(290.161298, 461.851286)"><g><path d="M 33.734375 -83.65625 L 0.609375 -83.65625 L 0.609375 -107.84375 L 97.21875 -107.84375 L 97.21875 -83.65625 L 64.25 -83.65625 L 64.25 0 L 33.734375 0 Z M 33.734375 -83.65625 "/></g></g></g><g fill="rgb(96.078491%, 56.079102%, 23.529053%)" fill-opacity="1"><g transform="translate(516.749168, 458.633083)"><g><path d="M 60.546875 2.15625 C 44.523438 2.15625 32.070312 -2.207031 23.1875 -10.9375 C 14.300781 -19.664062 9.859375 -32.039062 9.859375 -48.0625 L 9.859375 -107.84375 L 40.359375 -107.84375 L 40.359375 -48.984375 C 40.359375 -31.734375 47.191406 -23.109375 60.859375 -23.109375 C 74.410156 -23.109375 81.1875 -31.734375 81.1875 -48.984375 L 81.1875 -107.84375 L 111.234375 -107.84375 L 111.234375 -48.0625 C 111.234375 -32.039062 106.789062 -19.664062 97.90625 -10.9375 C 89.019531 -2.207031 76.566406 2.15625 60.546875 2.15625 Z M 60.546875 2.15625 "/></g></g></g><g fill="rgb(96.078491%, 56.079102%, 23.529053%)" fill-opacity="1"><g transform="translate(637.836111, 458.633083)"><g><path d="M 57.921875 -28.65625 L 41.28125 -28.65625 L 41.28125 0 L 10.78125 0 L 10.78125 -107.84375 L 60.078125 -107.84375 C 69.835938 -107.84375 78.3125 -106.222656 85.5 -102.984375 C 92.695312 -99.753906 98.242188 -95.132812 102.140625 -89.125 C 106.046875 -83.113281 108 -76.050781 108 -67.9375 C 108 -60.132812 106.175781 -53.332031 102.53125 -47.53125 C 98.882812 -41.726562 93.671875 -37.179688 86.890625 -33.890625 L 110.15625 0 L 77.5 0 Z M 77.1875 -67.9375 C 77.1875 -72.96875 75.59375 -76.867188 72.40625 -79.640625 C 69.226562 -82.421875 64.503906 -83.8125 58.234375 -83.8125 L 41.28125 -83.8125 L 41.28125 -52.234375 L 58.234375 -52.234375 C 64.503906 -52.234375 69.226562 -53.59375 72.40625 -56.3125 C 75.59375 -59.03125 77.1875 -62.90625 77.1875 -67.9375 Z M 77.1875 -67.9375 "/></g></g></g></svg>