<?xml version="1.0" standalone="no"?>
<!DOCTYPE svg PUBLIC "-//W3C//DTD SVG 20010904//EN"
 "http://www.w3.org/TR/2001/REC-SVG-20010904/DTD/svg10.dtd">
<svg version="1.0" xmlns="http://www.w3.org/2000/svg"
 width="1080.000000pt" height="1080.000000pt" viewBox="0 0 1080.000000 1080.000000"
 preserveAspectRatio="xMidYMid meet">

<g transform="translate(0.000000,1080.000000) scale(0.100000,-0.100000)"
fill="#000000" stroke="none">
<path d="M754 6063 c3 -10 141 -333 305 -718 l299 -700 203 0 202 0 303 708
c167 390 304 713 304 718 0 5 -85 9 -197 9 l-198 0 -194 -458 c-107 -251 -197
-461 -201 -465 -4 -4 -94 201 -201 457 l-194 466 -218 0 c-203 0 -218 -1 -213
-17z"/>
<path d="M2497 6074 c-4 -4 -7 -328 -7 -721 l0 -713 205 0 205 0 0 190 0 190
113 0 112 -1 129 -189 129 -190 218 0 218 0 -155 226 c-86 124 -154 227 -152
228 1 1 23 14 48 28 105 60 197 195 221 323 16 83 5 207 -24 287 -58 160 -183
265 -382 320 -75 20 -106 22 -475 26 -217 2 -398 0 -403 -4z m760 -338 c131
-55 166 -239 64 -336 -53 -51 -95 -60 -270 -60 l-151 0 0 211 0 211 158 -4
c119 -4 167 -9 199 -22z"/>
<path d="M3880 5920 l0 -160 220 0 220 0 0 -560 0 -560 205 0 205 0 0 560 0
560 220 0 221 0 -3 158 -3 157 -642 3 -643 2 0 -160z"/>
</g>
</svg>
